# xmcd
#
# Track frame offsets: 
#        151
#        16197
#        42848
#        59025
#        82652
#        105374
#        132501
#
# Disc length: 2017 seconds
#
# Revision: 0
# Processed by: cddbd v1.4b42PL1 Copyright (c) Steve Scherf et al.
# Submitted via: ExactAudioCopy v0.90a11
#
DISCID=4e07df07
DTITLE=The Black Crowes - 5-27-01 Disc One
DYEAR=1900
DGENRE=
TTITLE0=Midnight From the Inside Out
TTITLE1=Remedy
TTITLE2=Greasy Grass River
TTITLE3=Jealous Again
TTITLE4=Lickin'
TTITLE5=Cursed Diamond
TTITLE6=Soul Singin'
EXTD=
EXTT0=
EXTT1=
EXTT2=
EXTT3=
EXTT4=
EXTT5=
EXTT6=
PLAYORDER=
